G04 #@! TF.GenerationSoftware,KiCad,Pcbnew,(5.1.2-1)-1*
G04 #@! TF.CreationDate,2019-08-16T21:20:42-07:00*
G04 #@! TF.ProjectId,clock_mems_extension,636c6f63-6b5f-46d6-956d-735f65787465,rev?*
G04 #@! TF.SameCoordinates,Original*
G04 #@! TF.FileFunction,Copper,L2,Bot*
G04 #@! TF.FilePolarity,Positive*
%FSLAX46Y46*%
G04 Gerber Fmt 4.6, Leading zero omitted, Abs format (unit mm)*
G04 Created by KiCad (PCBNEW (5.1.2-1)-1) date 2019-08-16 21:20:42*
%MOMM*%
%LPD*%
G04 APERTURE LIST*
%ADD10C,1.600000*%
%ADD11C,0.254000*%
G04 APERTURE END LIST*
D10*
X137668000Y-84582000D03*
X148082000Y-80772000D03*
X150622000Y-80772000D03*
X148082000Y-84582000D03*
D11*
G36*
X154572501Y-87199000D02*
G01*
X135051000Y-87199000D01*
X135051000Y-84465682D01*
X136487000Y-84465682D01*
X136487000Y-84698318D01*
X136532386Y-84926485D01*
X136621412Y-85141413D01*
X136750658Y-85334843D01*
X136915157Y-85499342D01*
X137108587Y-85628588D01*
X137323515Y-85717614D01*
X137551682Y-85763000D01*
X137784318Y-85763000D01*
X138012485Y-85717614D01*
X138227413Y-85628588D01*
X138420843Y-85499342D01*
X138585342Y-85334843D01*
X138714588Y-85141413D01*
X138803614Y-84926485D01*
X138849000Y-84698318D01*
X138849000Y-84465682D01*
X146901000Y-84465682D01*
X146901000Y-84698318D01*
X146946386Y-84926485D01*
X147035412Y-85141413D01*
X147164658Y-85334843D01*
X147329157Y-85499342D01*
X147522587Y-85628588D01*
X147737515Y-85717614D01*
X147965682Y-85763000D01*
X148198318Y-85763000D01*
X148426485Y-85717614D01*
X148641413Y-85628588D01*
X148834843Y-85499342D01*
X148999342Y-85334843D01*
X149128588Y-85141413D01*
X149217614Y-84926485D01*
X149263000Y-84698318D01*
X149263000Y-84465682D01*
X149217614Y-84237515D01*
X149128588Y-84022587D01*
X148999342Y-83829157D01*
X148834843Y-83664658D01*
X148641413Y-83535412D01*
X148426485Y-83446386D01*
X148198318Y-83401000D01*
X147965682Y-83401000D01*
X147737515Y-83446386D01*
X147522587Y-83535412D01*
X147329157Y-83664658D01*
X147164658Y-83829157D01*
X147035412Y-84022587D01*
X146946386Y-84237515D01*
X146901000Y-84465682D01*
X138849000Y-84465682D01*
X138803614Y-84237515D01*
X138714588Y-84022587D01*
X138585342Y-83829157D01*
X138420843Y-83664658D01*
X138227413Y-83535412D01*
X138012485Y-83446386D01*
X137784318Y-83401000D01*
X137551682Y-83401000D01*
X137323515Y-83446386D01*
X137108587Y-83535412D01*
X136915157Y-83664658D01*
X136750658Y-83829157D01*
X136621412Y-84022587D01*
X136532386Y-84237515D01*
X136487000Y-84465682D01*
X135051000Y-84465682D01*
X135051000Y-80655682D01*
X146901000Y-80655682D01*
X146901000Y-80888318D01*
X146946386Y-81116485D01*
X147035412Y-81331413D01*
X147164658Y-81524843D01*
X147329157Y-81689342D01*
X147522587Y-81818588D01*
X147737515Y-81907614D01*
X147965682Y-81953000D01*
X148198318Y-81953000D01*
X148426485Y-81907614D01*
X148641413Y-81818588D01*
X148722058Y-81764702D01*
X149808903Y-81764702D01*
X149880486Y-82008671D01*
X150135996Y-82129571D01*
X150410184Y-82198300D01*
X150692512Y-82212217D01*
X150972130Y-82170787D01*
X151238292Y-82075603D01*
X151363514Y-82008671D01*
X151435097Y-81764702D01*
X150622000Y-80951605D01*
X149808903Y-81764702D01*
X148722058Y-81764702D01*
X148834843Y-81689342D01*
X148999342Y-81524843D01*
X149128588Y-81331413D01*
X149217614Y-81116485D01*
X149220343Y-81102763D01*
X149223213Y-81122130D01*
X149318397Y-81388292D01*
X149385329Y-81513514D01*
X149629298Y-81585097D01*
X150442395Y-80772000D01*
X150801605Y-80772000D01*
X151614702Y-81585097D01*
X151858671Y-81513514D01*
X151979571Y-81258004D01*
X152048300Y-80983816D01*
X152062217Y-80701488D01*
X152020787Y-80421870D01*
X151925603Y-80155708D01*
X151858671Y-80030486D01*
X151614702Y-79958903D01*
X150801605Y-80772000D01*
X150442395Y-80772000D01*
X149629298Y-79958903D01*
X149385329Y-80030486D01*
X149264429Y-80285996D01*
X149222632Y-80452741D01*
X149217614Y-80427515D01*
X149128588Y-80212587D01*
X148999342Y-80019157D01*
X148834843Y-79854658D01*
X148722059Y-79779298D01*
X149808903Y-79779298D01*
X150622000Y-80592395D01*
X151435097Y-79779298D01*
X151363514Y-79535329D01*
X151108004Y-79414429D01*
X150833816Y-79345700D01*
X150551488Y-79331783D01*
X150271870Y-79373213D01*
X150005708Y-79468397D01*
X149880486Y-79535329D01*
X149808903Y-79779298D01*
X148722059Y-79779298D01*
X148641413Y-79725412D01*
X148426485Y-79636386D01*
X148198318Y-79591000D01*
X147965682Y-79591000D01*
X147737515Y-79636386D01*
X147522587Y-79725412D01*
X147329157Y-79854658D01*
X147164658Y-80019157D01*
X147035412Y-80212587D01*
X146946386Y-80427515D01*
X146901000Y-80655682D01*
X135051000Y-80655682D01*
X135051000Y-77964500D01*
X154572500Y-77964500D01*
X154572501Y-87199000D01*
X154572501Y-87199000D01*
G37*
X154572501Y-87199000D02*
X135051000Y-87199000D01*
X135051000Y-84465682D01*
X136487000Y-84465682D01*
X136487000Y-84698318D01*
X136532386Y-84926485D01*
X136621412Y-85141413D01*
X136750658Y-85334843D01*
X136915157Y-85499342D01*
X137108587Y-85628588D01*
X137323515Y-85717614D01*
X137551682Y-85763000D01*
X137784318Y-85763000D01*
X138012485Y-85717614D01*
X138227413Y-85628588D01*
X138420843Y-85499342D01*
X138585342Y-85334843D01*
X138714588Y-85141413D01*
X138803614Y-84926485D01*
X138849000Y-84698318D01*
X138849000Y-84465682D01*
X146901000Y-84465682D01*
X146901000Y-84698318D01*
X146946386Y-84926485D01*
X147035412Y-85141413D01*
X147164658Y-85334843D01*
X147329157Y-85499342D01*
X147522587Y-85628588D01*
X147737515Y-85717614D01*
X147965682Y-85763000D01*
X148198318Y-85763000D01*
X148426485Y-85717614D01*
X148641413Y-85628588D01*
X148834843Y-85499342D01*
X148999342Y-85334843D01*
X149128588Y-85141413D01*
X149217614Y-84926485D01*
X149263000Y-84698318D01*
X149263000Y-84465682D01*
X149217614Y-84237515D01*
X149128588Y-84022587D01*
X148999342Y-83829157D01*
X148834843Y-83664658D01*
X148641413Y-83535412D01*
X148426485Y-83446386D01*
X148198318Y-83401000D01*
X147965682Y-83401000D01*
X147737515Y-83446386D01*
X147522587Y-83535412D01*
X147329157Y-83664658D01*
X147164658Y-83829157D01*
X147035412Y-84022587D01*
X146946386Y-84237515D01*
X146901000Y-84465682D01*
X138849000Y-84465682D01*
X138803614Y-84237515D01*
X138714588Y-84022587D01*
X138585342Y-83829157D01*
X138420843Y-83664658D01*
X138227413Y-83535412D01*
X138012485Y-83446386D01*
X137784318Y-83401000D01*
X137551682Y-83401000D01*
X137323515Y-83446386D01*
X137108587Y-83535412D01*
X136915157Y-83664658D01*
X136750658Y-83829157D01*
X136621412Y-84022587D01*
X136532386Y-84237515D01*
X136487000Y-84465682D01*
X135051000Y-84465682D01*
X135051000Y-80655682D01*
X146901000Y-80655682D01*
X146901000Y-80888318D01*
X146946386Y-81116485D01*
X147035412Y-81331413D01*
X147164658Y-81524843D01*
X147329157Y-81689342D01*
X147522587Y-81818588D01*
X147737515Y-81907614D01*
X147965682Y-81953000D01*
X148198318Y-81953000D01*
X148426485Y-81907614D01*
X148641413Y-81818588D01*
X148722058Y-81764702D01*
X149808903Y-81764702D01*
X149880486Y-82008671D01*
X150135996Y-82129571D01*
X150410184Y-82198300D01*
X150692512Y-82212217D01*
X150972130Y-82170787D01*
X151238292Y-82075603D01*
X151363514Y-82008671D01*
X151435097Y-81764702D01*
X150622000Y-80951605D01*
X149808903Y-81764702D01*
X148722058Y-81764702D01*
X148834843Y-81689342D01*
X148999342Y-81524843D01*
X149128588Y-81331413D01*
X149217614Y-81116485D01*
X149220343Y-81102763D01*
X149223213Y-81122130D01*
X149318397Y-81388292D01*
X149385329Y-81513514D01*
X149629298Y-81585097D01*
X150442395Y-80772000D01*
X150801605Y-80772000D01*
X151614702Y-81585097D01*
X151858671Y-81513514D01*
X151979571Y-81258004D01*
X152048300Y-80983816D01*
X152062217Y-80701488D01*
X152020787Y-80421870D01*
X151925603Y-80155708D01*
X151858671Y-80030486D01*
X151614702Y-79958903D01*
X150801605Y-80772000D01*
X150442395Y-80772000D01*
X149629298Y-79958903D01*
X149385329Y-80030486D01*
X149264429Y-80285996D01*
X149222632Y-80452741D01*
X149217614Y-80427515D01*
X149128588Y-80212587D01*
X148999342Y-80019157D01*
X148834843Y-79854658D01*
X148722059Y-79779298D01*
X149808903Y-79779298D01*
X150622000Y-80592395D01*
X151435097Y-79779298D01*
X151363514Y-79535329D01*
X151108004Y-79414429D01*
X150833816Y-79345700D01*
X150551488Y-79331783D01*
X150271870Y-79373213D01*
X150005708Y-79468397D01*
X149880486Y-79535329D01*
X149808903Y-79779298D01*
X148722059Y-79779298D01*
X148641413Y-79725412D01*
X148426485Y-79636386D01*
X148198318Y-79591000D01*
X147965682Y-79591000D01*
X147737515Y-79636386D01*
X147522587Y-79725412D01*
X147329157Y-79854658D01*
X147164658Y-80019157D01*
X147035412Y-80212587D01*
X146946386Y-80427515D01*
X146901000Y-80655682D01*
X135051000Y-80655682D01*
X135051000Y-77964500D01*
X154572500Y-77964500D01*
X154572501Y-87199000D01*
M02*
