M48
; DRILL file {KiCad (5.1.2-1)-1} date Sunday, July 28, 2019 at 07:23:28 PM
; FORMAT={-:-/ absolute / inch / decimal}
; #@! TF.CreationDate,2019-07-28T19:23:28-07:00
; #@! TF.GenerationSoftware,Kicad,Pcbnew,(5.1.2-1)-1
; #@! TF.FileFunction,Plated,1,2,PTH
FMAT,2
INCH
T1C0.0150
T2C0.0197
T3C0.0276
T4C0.0299
T5C0.0300
T6C0.0315
T7C0.0362
T8C0.0394
T9C0.0433
T10C0.0906
%
G90
G05
T1
X9.355Y-2.55
X9.355Y-2.55
X9.38Y-3.91
X9.45Y-4.71
X9.51Y-4.66
X9.57Y-4.61
X9.61Y-4.16
T2
X10.25Y-4.62
X10.25Y-4.6948
T3
X5.61Y-2.535
X5.71Y-2.435
X5.71Y-2.635
T4
X6.4613Y-4.105
X6.855Y-4.105
X8.8163Y-4.24
X9.21Y-4.24
X8.8163Y-4.35
X9.21Y-4.35
X7.6963Y-4.38
X8.09Y-4.38
X6.1Y-5.04
X6.4937Y-5.04
X6.62Y-5.04
X7.0137Y-5.04
T5
X5.115Y-4.155
X5.115Y-4.455
X5.215Y-4.155
X5.215Y-4.455
X5.315Y-4.155
X5.315Y-4.455
X5.415Y-4.155
X5.415Y-4.455
X5.515Y-4.155
X5.515Y-4.455
X5.615Y-4.155
X5.615Y-4.455
X5.715Y-4.455
X6.53Y-4.53
X6.63Y-4.53
X6.63Y-4.83
X6.73Y-4.53
X6.73Y-4.83
X6.83Y-4.53
X6.83Y-4.83
X6.93Y-4.53
X6.93Y-4.83
X7.03Y-4.53
X7.03Y-4.83
X7.13Y-4.53
X7.13Y-4.83
X8.485Y-4.53
X8.485Y-4.83
X8.585Y-4.53
X8.585Y-4.83
X8.685Y-4.53
X8.685Y-4.83
X8.785Y-4.53
X8.785Y-4.83
X8.885Y-4.53
X8.885Y-4.83
X8.985Y-4.53
X8.985Y-4.83
X9.085Y-4.83
X10.005Y-4.155
X10.005Y-4.455
X10.105Y-4.155
X10.105Y-4.455
X10.205Y-4.155
X10.205Y-4.455
X10.305Y-4.155
X10.305Y-4.455
X10.405Y-4.155
X10.405Y-4.455
X10.505Y-4.155
X10.505Y-4.455
X10.605Y-4.455
T6
X5.45Y-2.86
X5.45Y-3.16
X10.35Y-4.65
X10.4484Y-4.65
X8.89Y-2.44
X8.99Y-2.44
X9.09Y-2.44
X9.19Y-2.44
X9.29Y-2.44
X9.39Y-2.44
X9.49Y-2.44
X9.59Y-2.44
X8.205Y-3.655
X8.205Y-3.955
X5.02Y-3.7
X5.02Y-3.7984
X5.015Y-2.855
X5.015Y-2.955
X5.015Y-3.055
X5.015Y-3.155
X5.015Y-3.255
X5.015Y-3.355
X5.015Y-3.455
X5.015Y-3.555
X5.315Y-2.855
X5.315Y-2.955
X5.315Y-3.055
X5.315Y-3.155
X5.315Y-3.255
X5.315Y-3.355
X5.315Y-3.455
X5.315Y-3.555
X8.63Y-5.04
X8.73Y-5.04
X8.83Y-5.04
X6.87Y-2.64
X6.97Y-2.64
X7.07Y-2.64
X7.17Y-2.64
X7.27Y-2.64
X7.37Y-2.64
X7.47Y-2.64
X7.57Y-2.64
X7.13Y-3.68
X7.13Y-3.78
X7.13Y-3.88
X7.13Y-3.98
X7.13Y-4.08
X7.13Y-4.18
X7.13Y-4.28
X7.13Y-4.38
X7.43Y-3.68
X7.43Y-3.78
X7.43Y-3.88
X7.43Y-3.98
X7.43Y-4.08
X7.43Y-4.18
X7.43Y-4.28
X7.43Y-4.38
X6.43Y-4.22
X6.5284Y-4.22
X9.81Y-4.13
X9.81Y-4.2284
X9.81Y-4.55
X9.81Y-4.85
X5.96Y-2.44
X6.06Y-2.44
X6.16Y-2.44
X6.26Y-2.44
X6.36Y-2.44
X6.46Y-2.44
X6.56Y-2.44
X6.66Y-2.44
X9.8Y-2.64
X9.9Y-2.64
X10.0Y-2.64
X10.1Y-2.64
X10.2Y-2.64
X10.3Y-2.64
X10.4Y-2.64
X10.5Y-2.64
X8.22Y-4.2816
X8.22Y-4.38
X7.955Y-2.88
X7.955Y-3.48
X8.055Y-2.88
X8.055Y-3.48
X8.155Y-2.88
X8.155Y-3.48
X8.255Y-2.88
X8.255Y-3.48
X8.355Y-2.88
X8.355Y-3.48
X8.39Y-5.04
X8.4884Y-5.04
X9.77Y-3.4216
X9.77Y-3.52
X9.905Y-2.855
X9.905Y-2.955
X9.905Y-3.055
X9.905Y-3.155
X9.905Y-3.255
X9.905Y-3.355
X9.905Y-3.455
X9.905Y-3.555
X10.205Y-2.855
X10.205Y-2.955
X10.205Y-3.055
X10.205Y-3.155
X10.205Y-3.255
X10.205Y-3.355
X10.205Y-3.455
X10.205Y-3.555
X5.961Y-2.64
X6.061Y-2.64
X6.161Y-2.64
X6.261Y-2.64
X6.361Y-2.64
X6.461Y-2.64
X6.561Y-2.64
X6.661Y-2.64
X9.94Y-4.8
X10.24Y-4.8
X7.42Y-4.53
X7.42Y-4.6284
X6.105Y-3.73
X6.105Y-3.8284
X7.78Y-2.64
X7.88Y-2.64
X7.98Y-2.64
X8.08Y-2.64
X8.18Y-2.64
X8.28Y-2.64
X8.38Y-2.64
X8.48Y-2.64
X8.58Y-2.64
X8.68Y-2.64
X8.35Y-3.675
X8.35Y-3.775
X8.35Y-3.875
X8.35Y-3.975
X8.35Y-4.075
X8.35Y-4.175
X8.35Y-4.275
X8.35Y-4.375
X8.65Y-3.675
X8.65Y-3.775
X8.65Y-3.875
X8.65Y-3.975
X8.65Y-4.075
X8.65Y-4.175
X8.65Y-4.275
X8.65Y-4.375
X5.155Y-3.705
X5.155Y-4.005
X5.255Y-3.705
X5.255Y-4.005
X5.355Y-3.705
X5.355Y-4.005
X5.455Y-3.705
X5.455Y-4.005
X5.555Y-3.705
X5.555Y-4.005
X5.655Y-3.705
X5.655Y-4.005
X5.755Y-3.705
X5.755Y-4.005
X5.855Y-3.705
X5.855Y-4.005
X7.56Y-4.2816
X7.56Y-4.38
X10.78Y-3.8116
X10.78Y-3.91
X10.78Y-4.2616
X10.78Y-4.36
X9.25Y-4.7316
X9.25Y-4.83
X9.38Y-4.13
X9.38Y-4.23
X9.38Y-4.33
X9.38Y-4.43
X9.38Y-4.53
X9.38Y-4.63
X9.38Y-4.73
X9.38Y-4.83
X9.68Y-4.13
X9.68Y-4.23
X9.68Y-4.33
X9.68Y-4.43
X9.68Y-4.53
X9.68Y-4.63
X9.68Y-4.73
X9.68Y-4.83
X6.87Y-2.44
X6.97Y-2.44
X7.07Y-2.44
X7.17Y-2.44
X7.27Y-2.44
X7.37Y-2.44
X7.47Y-2.44
X7.57Y-2.44
X5.45Y-3.4616
X5.45Y-3.56
X8.89Y-2.64
X8.99Y-2.64
X9.09Y-2.64
X9.19Y-2.64
X9.29Y-2.64
X9.39Y-2.64
X9.49Y-2.64
X9.59Y-2.64
X9.375Y-5.04
X9.675Y-5.04
X5.1713Y-2.65
X5.25Y-2.65
X5.88Y-4.3616
X5.88Y-4.46
X7.85Y-5.04
X7.95Y-5.04
X6.98Y-3.655
X6.98Y-3.955
X9.77Y-3.1916
X9.77Y-3.29
X9.44Y-3.67
X9.44Y-3.97
X9.54Y-3.67
X9.54Y-3.97
X9.64Y-3.67
X9.64Y-3.97
X9.74Y-3.67
X9.74Y-3.97
X8.95Y-5.04
X9.25Y-5.04
X7.58Y-3.66
X7.58Y-3.96
X5.58Y-2.855
X5.58Y-2.955
X5.58Y-3.055
X5.58Y-3.155
X5.58Y-3.255
X5.58Y-3.355
X5.58Y-3.455
X5.58Y-3.555
X5.88Y-2.855
X5.88Y-2.955
X5.88Y-3.055
X5.88Y-3.155
X5.88Y-3.255
X5.88Y-3.355
X5.88Y-3.455
X5.88Y-3.555
X8.68Y-2.88
X8.68Y-3.48
X8.78Y-2.88
X8.78Y-3.48
X8.88Y-2.88
X8.88Y-3.48
X8.98Y-2.88
X8.98Y-3.48
X9.08Y-2.88
X9.08Y-3.48
X6.73Y-2.88
X6.73Y-3.48
X6.83Y-2.88
X6.83Y-3.48
X6.93Y-2.88
X6.93Y-3.48
X7.03Y-2.88
X7.03Y-3.48
X7.13Y-2.88
X7.13Y-3.48
X6.53Y-4.4
X6.6284Y-4.4
X10.47Y-2.86
X10.47Y-2.96
X10.47Y-3.06
X10.47Y-3.16
X10.47Y-3.26
X10.47Y-3.36
X10.47Y-3.46
X10.47Y-3.56
X10.77Y-2.86
X10.77Y-2.96
X10.77Y-3.06
X10.77Y-3.16
X10.77Y-3.26
X10.77Y-3.36
X10.77Y-3.46
X10.77Y-3.56
X7.78Y-2.4375
X7.88Y-2.4375
X7.98Y-2.4375
X8.08Y-2.4375
X8.18Y-2.4375
X8.28Y-2.4375
X8.38Y-2.4375
X8.48Y-2.4375
X8.58Y-2.4375
X8.68Y-2.4375
X5.98Y-3.9
X5.98Y-3.9984
X10.33Y-2.85
X10.33Y-2.9484
X9.8Y-2.44
X9.9Y-2.44
X10.0Y-2.44
X10.1Y-2.44
X10.2Y-2.44
X10.3Y-2.44
X10.4Y-2.44
X10.5Y-2.44
X8.795Y-3.655
X8.795Y-3.955
X7.13Y-5.04
X7.43Y-5.04
X9.18Y-2.88
X9.18Y-3.48
X9.28Y-2.88
X9.28Y-3.48
X9.38Y-2.88
X9.38Y-3.48
X9.48Y-2.88
X9.48Y-3.48
X9.58Y-2.88
X9.58Y-3.48
X10.34Y-3.4616
X10.34Y-3.56
X5.02Y-2.62
X5.02Y-2.7184
X6.355Y-3.655
X6.355Y-3.955
X10.3516Y-4.8
X10.45Y-4.8
X7.0Y-4.2816
X7.0Y-4.38
X6.005Y-4.13
X6.005Y-4.23
X6.005Y-4.33
X6.005Y-4.43
X6.005Y-4.53
X6.005Y-4.63
X6.005Y-4.73
X6.005Y-4.83
X6.305Y-4.13
X6.305Y-4.23
X6.305Y-4.33
X6.305Y-4.43
X6.305Y-4.53
X6.305Y-4.63
X6.305Y-4.73
X6.305Y-4.83
X6.23Y-2.88
X6.23Y-3.48
X6.33Y-2.88
X6.33Y-3.48
X6.43Y-2.88
X6.43Y-3.48
X6.53Y-2.88
X6.53Y-3.48
X6.63Y-2.88
X6.63Y-3.48
X9.955Y-3.705
X9.955Y-4.005
X10.055Y-3.705
X10.055Y-4.005
X10.155Y-3.705
X10.155Y-4.005
X10.255Y-3.705
X10.255Y-4.005
X10.355Y-3.705
X10.355Y-4.005
X10.455Y-3.705
X10.455Y-4.005
X10.555Y-3.705
X10.555Y-4.005
X10.655Y-3.705
X10.655Y-4.005
X7.555Y-4.53
X7.555Y-4.83
X7.655Y-4.53
X7.655Y-4.83
X7.755Y-4.53
X7.755Y-4.83
X7.855Y-4.53
X7.855Y-4.83
X7.955Y-4.53
X7.955Y-4.83
X8.055Y-4.53
X8.055Y-4.83
X8.155Y-4.53
X8.155Y-4.83
X8.255Y-4.53
X8.255Y-4.83
X7.455Y-2.88
X7.455Y-3.48
X7.555Y-2.88
X7.555Y-3.48
X7.655Y-2.88
X7.655Y-3.48
X7.755Y-2.88
X7.755Y-3.48
X7.855Y-2.88
X7.855Y-3.48
T7
X5.39Y-4.67
X5.4884Y-4.67
X5.5672Y-4.67
X5.6656Y-4.67
T8
X5.715Y-4.155
X5.44Y-2.445
X5.44Y-2.545
X5.44Y-2.645
X6.53Y-4.83
X9.085Y-4.53
X10.605Y-4.155
T9
X8.98Y-3.9322
X6.53Y-3.755
X6.53Y-3.9322
X6.7859Y-3.755
X6.7859Y-3.9322
X7.77Y-3.755
X7.77Y-3.9322
X8.0259Y-3.755
X8.0259Y-3.9322
X8.98Y-3.755
X9.2359Y-3.755
X9.2359Y-3.9322
T10
X5.2691Y-4.7767
X5.7865Y-4.7767
T0
M30
