G04 #@! TF.GenerationSoftware,KiCad,Pcbnew,(5.1.2-1)-1*
G04 #@! TF.CreationDate,2019-07-28T19:22:19-07:00*
G04 #@! TF.ProjectId,clock,636c6f63-6b2e-46b6-9963-61645f706362,v01*
G04 #@! TF.SameCoordinates,Original*
G04 #@! TF.FileFunction,Legend,Bot*
G04 #@! TF.FilePolarity,Positive*
%FSLAX46Y46*%
G04 Gerber Fmt 4.6, Leading zero omitted, Abs format (unit mm)*
G04 Created by KiCad (PCBNEW (5.1.2-1)-1) date 2019-07-28 19:22:19*
%MOMM*%
%LPD*%
G04 APERTURE LIST*
%ADD10C,0.150000*%
G04 APERTURE END LIST*
D10*
X267586833Y-125198714D02*
X267586833Y-126008238D01*
X267634452Y-126103476D01*
X267682071Y-126151095D01*
X267777309Y-126198714D01*
X267920166Y-126198714D01*
X268015404Y-126151095D01*
X267586833Y-125817761D02*
X267682071Y-125865380D01*
X267872547Y-125865380D01*
X267967785Y-125817761D01*
X268015404Y-125770142D01*
X268063023Y-125674904D01*
X268063023Y-125389190D01*
X268015404Y-125293952D01*
X267967785Y-125246333D01*
X267872547Y-125198714D01*
X267682071Y-125198714D01*
X267586833Y-125246333D01*
X267110642Y-125865380D02*
X267110642Y-125198714D01*
X267110642Y-124865380D02*
X267158261Y-124913000D01*
X267110642Y-124960619D01*
X267063023Y-124913000D01*
X267110642Y-124865380D01*
X267110642Y-124960619D01*
X266777309Y-125198714D02*
X266396357Y-125198714D01*
X266634452Y-124865380D02*
X266634452Y-125722523D01*
X266586833Y-125817761D01*
X266491595Y-125865380D01*
X266396357Y-125865380D01*
X266063023Y-125865380D02*
X266063023Y-124865380D01*
X265634452Y-125865380D02*
X265634452Y-125341571D01*
X265682071Y-125246333D01*
X265777309Y-125198714D01*
X265920166Y-125198714D01*
X266015404Y-125246333D01*
X266063023Y-125293952D01*
X264729690Y-125198714D02*
X264729690Y-125865380D01*
X265158261Y-125198714D02*
X265158261Y-125722523D01*
X265110642Y-125817761D01*
X265015404Y-125865380D01*
X264872547Y-125865380D01*
X264777309Y-125817761D01*
X264729690Y-125770142D01*
X264253500Y-125865380D02*
X264253500Y-124865380D01*
X264253500Y-125246333D02*
X264158261Y-125198714D01*
X263967785Y-125198714D01*
X263872547Y-125246333D01*
X263824928Y-125293952D01*
X263777309Y-125389190D01*
X263777309Y-125674904D01*
X263824928Y-125770142D01*
X263872547Y-125817761D01*
X263967785Y-125865380D01*
X264158261Y-125865380D01*
X264253500Y-125817761D01*
X263348738Y-125770142D02*
X263301119Y-125817761D01*
X263348738Y-125865380D01*
X263396357Y-125817761D01*
X263348738Y-125770142D01*
X263348738Y-125865380D01*
X262443976Y-125817761D02*
X262539214Y-125865380D01*
X262729690Y-125865380D01*
X262824928Y-125817761D01*
X262872547Y-125770142D01*
X262920166Y-125674904D01*
X262920166Y-125389190D01*
X262872547Y-125293952D01*
X262824928Y-125246333D01*
X262729690Y-125198714D01*
X262539214Y-125198714D01*
X262443976Y-125246333D01*
X261872547Y-125865380D02*
X261967785Y-125817761D01*
X262015404Y-125770142D01*
X262063023Y-125674904D01*
X262063023Y-125389190D01*
X262015404Y-125293952D01*
X261967785Y-125246333D01*
X261872547Y-125198714D01*
X261729690Y-125198714D01*
X261634452Y-125246333D01*
X261586833Y-125293952D01*
X261539214Y-125389190D01*
X261539214Y-125674904D01*
X261586833Y-125770142D01*
X261634452Y-125817761D01*
X261729690Y-125865380D01*
X261872547Y-125865380D01*
X261110642Y-125865380D02*
X261110642Y-125198714D01*
X261110642Y-125293952D02*
X261063023Y-125246333D01*
X260967785Y-125198714D01*
X260824928Y-125198714D01*
X260729690Y-125246333D01*
X260682071Y-125341571D01*
X260682071Y-125865380D01*
X260682071Y-125341571D02*
X260634452Y-125246333D01*
X260539214Y-125198714D01*
X260396357Y-125198714D01*
X260301119Y-125246333D01*
X260253500Y-125341571D01*
X260253500Y-125865380D01*
X259063023Y-124817761D02*
X259920166Y-126103476D01*
X258348738Y-125817761D02*
X258443976Y-125865380D01*
X258634452Y-125865380D01*
X258729690Y-125817761D01*
X258777309Y-125722523D01*
X258777309Y-125341571D01*
X258729690Y-125246333D01*
X258634452Y-125198714D01*
X258443976Y-125198714D01*
X258348738Y-125246333D01*
X258301119Y-125341571D01*
X258301119Y-125436809D01*
X258777309Y-125532047D01*
X257872547Y-125865380D02*
X257872547Y-125198714D01*
X257872547Y-125389190D02*
X257824928Y-125293952D01*
X257777309Y-125246333D01*
X257682071Y-125198714D01*
X257586833Y-125198714D01*
X257253500Y-125865380D02*
X257253500Y-125198714D01*
X257253500Y-124865380D02*
X257301119Y-124913000D01*
X257253500Y-124960619D01*
X257205880Y-124913000D01*
X257253500Y-124865380D01*
X257253500Y-124960619D01*
X256777309Y-125865380D02*
X256777309Y-124865380D01*
X256682071Y-125484428D02*
X256396357Y-125865380D01*
X256396357Y-125198714D02*
X256777309Y-125579666D01*
X256063023Y-125198714D02*
X255824928Y-125865380D01*
X255586833Y-125198714D01*
X254777309Y-125865380D02*
X254777309Y-125341571D01*
X254824928Y-125246333D01*
X254920166Y-125198714D01*
X255110642Y-125198714D01*
X255205880Y-125246333D01*
X254777309Y-125817761D02*
X254872547Y-125865380D01*
X255110642Y-125865380D01*
X255205880Y-125817761D01*
X255253500Y-125722523D01*
X255253500Y-125627285D01*
X255205880Y-125532047D01*
X255110642Y-125484428D01*
X254872547Y-125484428D01*
X254777309Y-125436809D01*
X254301119Y-125198714D02*
X254301119Y-125865380D01*
X254301119Y-125293952D02*
X254253500Y-125246333D01*
X254158261Y-125198714D01*
X254015404Y-125198714D01*
X253920166Y-125246333D01*
X253872547Y-125341571D01*
X253872547Y-125865380D01*
X253491595Y-125198714D02*
X252967785Y-125198714D01*
X253491595Y-125865380D01*
X252967785Y-125865380D01*
X252586833Y-125865380D02*
X252586833Y-125198714D01*
X252586833Y-124865380D02*
X252634452Y-124913000D01*
X252586833Y-124960619D01*
X252539214Y-124913000D01*
X252586833Y-124865380D01*
X252586833Y-124960619D01*
X252110642Y-125198714D02*
X252110642Y-126055857D01*
X252158261Y-126151095D01*
X252253500Y-126198714D01*
X252301119Y-126198714D01*
X252110642Y-124865380D02*
X252158261Y-124913000D01*
X252110642Y-124960619D01*
X252063023Y-124913000D01*
X252110642Y-124865380D01*
X252110642Y-124960619D01*
X251682071Y-125817761D02*
X251586833Y-125865380D01*
X251396357Y-125865380D01*
X251301119Y-125817761D01*
X251253500Y-125722523D01*
X251253500Y-125674904D01*
X251301119Y-125579666D01*
X251396357Y-125532047D01*
X251539214Y-125532047D01*
X251634452Y-125484428D01*
X251682071Y-125389190D01*
X251682071Y-125341571D01*
X251634452Y-125246333D01*
X251539214Y-125198714D01*
X251396357Y-125198714D01*
X251301119Y-125246333D01*
X250967785Y-125198714D02*
X250586833Y-125198714D01*
X250824928Y-124865380D02*
X250824928Y-125722523D01*
X250777309Y-125817761D01*
X250682071Y-125865380D01*
X250586833Y-125865380D01*
X249539214Y-124817761D02*
X250396357Y-126103476D01*
X248777309Y-125817761D02*
X248872547Y-125865380D01*
X249063023Y-125865380D01*
X249158261Y-125817761D01*
X249205880Y-125770142D01*
X249253500Y-125674904D01*
X249253500Y-125389190D01*
X249205880Y-125293952D01*
X249158261Y-125246333D01*
X249063023Y-125198714D01*
X248872547Y-125198714D01*
X248777309Y-125246333D01*
X248205880Y-125865380D02*
X248301119Y-125817761D01*
X248348738Y-125722523D01*
X248348738Y-124865380D01*
X247682071Y-125865380D02*
X247777309Y-125817761D01*
X247824928Y-125770142D01*
X247872547Y-125674904D01*
X247872547Y-125389190D01*
X247824928Y-125293952D01*
X247777309Y-125246333D01*
X247682071Y-125198714D01*
X247539214Y-125198714D01*
X247443976Y-125246333D01*
X247396357Y-125293952D01*
X247348738Y-125389190D01*
X247348738Y-125674904D01*
X247396357Y-125770142D01*
X247443976Y-125817761D01*
X247539214Y-125865380D01*
X247682071Y-125865380D01*
X246491595Y-125817761D02*
X246586833Y-125865380D01*
X246777309Y-125865380D01*
X246872547Y-125817761D01*
X246920166Y-125770142D01*
X246967785Y-125674904D01*
X246967785Y-125389190D01*
X246920166Y-125293952D01*
X246872547Y-125246333D01*
X246777309Y-125198714D01*
X246586833Y-125198714D01*
X246491595Y-125246333D01*
X246063023Y-125865380D02*
X246063023Y-124865380D01*
X245967785Y-125484428D02*
X245682071Y-125865380D01*
X245682071Y-125198714D02*
X246063023Y-125579666D01*
X267634452Y-127467761D02*
X267729690Y-127515380D01*
X267920166Y-127515380D01*
X268015404Y-127467761D01*
X268063023Y-127372523D01*
X268063023Y-126991571D01*
X268015404Y-126896333D01*
X267920166Y-126848714D01*
X267729690Y-126848714D01*
X267634452Y-126896333D01*
X267586833Y-126991571D01*
X267586833Y-127086809D01*
X268063023Y-127182047D01*
X267158261Y-127515380D02*
X267158261Y-126848714D01*
X267158261Y-127039190D02*
X267110642Y-126943952D01*
X267063023Y-126896333D01*
X266967785Y-126848714D01*
X266872547Y-126848714D01*
X266539214Y-127515380D02*
X266539214Y-126848714D01*
X266539214Y-126515380D02*
X266586833Y-126563000D01*
X266539214Y-126610619D01*
X266491595Y-126563000D01*
X266539214Y-126515380D01*
X266539214Y-126610619D01*
X266063023Y-127515380D02*
X266063023Y-126515380D01*
X265967785Y-127134428D02*
X265682071Y-127515380D01*
X265682071Y-126848714D02*
X266063023Y-127229666D01*
X265253500Y-127420142D02*
X265205880Y-127467761D01*
X265253500Y-127515380D01*
X265301119Y-127467761D01*
X265253500Y-127420142D01*
X265253500Y-127515380D01*
X264872547Y-126848714D02*
X264634452Y-127515380D01*
X264396357Y-126848714D01*
X263586833Y-127515380D02*
X263586833Y-126991571D01*
X263634452Y-126896333D01*
X263729690Y-126848714D01*
X263920166Y-126848714D01*
X264015404Y-126896333D01*
X263586833Y-127467761D02*
X263682071Y-127515380D01*
X263920166Y-127515380D01*
X264015404Y-127467761D01*
X264063023Y-127372523D01*
X264063023Y-127277285D01*
X264015404Y-127182047D01*
X263920166Y-127134428D01*
X263682071Y-127134428D01*
X263586833Y-127086809D01*
X263110642Y-126848714D02*
X263110642Y-127515380D01*
X263110642Y-126943952D02*
X263063023Y-126896333D01*
X262967785Y-126848714D01*
X262824928Y-126848714D01*
X262729690Y-126896333D01*
X262682071Y-126991571D01*
X262682071Y-127515380D01*
X262205880Y-127420142D02*
X262158261Y-127467761D01*
X262205880Y-127515380D01*
X262253500Y-127467761D01*
X262205880Y-127420142D01*
X262205880Y-127515380D01*
X261824928Y-126848714D02*
X261301119Y-126848714D01*
X261824928Y-127515380D01*
X261301119Y-127515380D01*
X260920166Y-127515380D02*
X260920166Y-126848714D01*
X260920166Y-126515380D02*
X260967785Y-126563000D01*
X260920166Y-126610619D01*
X260872547Y-126563000D01*
X260920166Y-126515380D01*
X260920166Y-126610619D01*
X260443976Y-126848714D02*
X260443976Y-127705857D01*
X260491595Y-127801095D01*
X260586833Y-127848714D01*
X260634452Y-127848714D01*
X260443976Y-126515380D02*
X260491595Y-126563000D01*
X260443976Y-126610619D01*
X260396357Y-126563000D01*
X260443976Y-126515380D01*
X260443976Y-126610619D01*
X260015404Y-127467761D02*
X259920166Y-127515380D01*
X259729690Y-127515380D01*
X259634452Y-127467761D01*
X259586833Y-127372523D01*
X259586833Y-127324904D01*
X259634452Y-127229666D01*
X259729690Y-127182047D01*
X259872547Y-127182047D01*
X259967785Y-127134428D01*
X260015404Y-127039190D01*
X260015404Y-126991571D01*
X259967785Y-126896333D01*
X259872547Y-126848714D01*
X259729690Y-126848714D01*
X259634452Y-126896333D01*
X259301119Y-126848714D02*
X258920166Y-126848714D01*
X259158261Y-126515380D02*
X259158261Y-127372523D01*
X259110642Y-127467761D01*
X259015404Y-127515380D01*
X258920166Y-127515380D01*
X257967785Y-127039190D02*
X258015404Y-126991571D01*
X258110642Y-126943952D01*
X258205880Y-126943952D01*
X258301119Y-126991571D01*
X258348738Y-127039190D01*
X258396357Y-127134428D01*
X258396357Y-127229666D01*
X258348738Y-127324904D01*
X258301119Y-127372523D01*
X258205880Y-127420142D01*
X258110642Y-127420142D01*
X258015404Y-127372523D01*
X257967785Y-127324904D01*
X257967785Y-126943952D02*
X257967785Y-127324904D01*
X257920166Y-127372523D01*
X257872547Y-127372523D01*
X257777309Y-127324904D01*
X257729690Y-127229666D01*
X257729690Y-126991571D01*
X257824928Y-126848714D01*
X257967785Y-126753476D01*
X258158261Y-126705857D01*
X258348738Y-126753476D01*
X258491595Y-126848714D01*
X258586833Y-126991571D01*
X258634452Y-127182047D01*
X258586833Y-127372523D01*
X258491595Y-127515380D01*
X258348738Y-127610619D01*
X258158261Y-127658238D01*
X257967785Y-127610619D01*
X257824928Y-127515380D01*
X256872547Y-126848714D02*
X256872547Y-127658238D01*
X256920166Y-127753476D01*
X256967785Y-127801095D01*
X257063023Y-127848714D01*
X257205880Y-127848714D01*
X257301119Y-127801095D01*
X256872547Y-127467761D02*
X256967785Y-127515380D01*
X257158261Y-127515380D01*
X257253500Y-127467761D01*
X257301119Y-127420142D01*
X257348738Y-127324904D01*
X257348738Y-127039190D01*
X257301119Y-126943952D01*
X257253500Y-126896333D01*
X257158261Y-126848714D01*
X256967785Y-126848714D01*
X256872547Y-126896333D01*
X256396357Y-127515380D02*
X256396357Y-126848714D01*
X256396357Y-126943952D02*
X256348738Y-126896333D01*
X256253500Y-126848714D01*
X256110642Y-126848714D01*
X256015404Y-126896333D01*
X255967785Y-126991571D01*
X255967785Y-127515380D01*
X255967785Y-126991571D02*
X255920166Y-126896333D01*
X255824928Y-126848714D01*
X255682071Y-126848714D01*
X255586833Y-126896333D01*
X255539214Y-126991571D01*
X255539214Y-127515380D01*
X254634452Y-127515380D02*
X254634452Y-126991571D01*
X254682071Y-126896333D01*
X254777309Y-126848714D01*
X254967785Y-126848714D01*
X255063023Y-126896333D01*
X254634452Y-127467761D02*
X254729690Y-127515380D01*
X254967785Y-127515380D01*
X255063023Y-127467761D01*
X255110642Y-127372523D01*
X255110642Y-127277285D01*
X255063023Y-127182047D01*
X254967785Y-127134428D01*
X254729690Y-127134428D01*
X254634452Y-127086809D01*
X254158261Y-127515380D02*
X254158261Y-126848714D01*
X254158261Y-126515380D02*
X254205880Y-126563000D01*
X254158261Y-126610619D01*
X254110642Y-126563000D01*
X254158261Y-126515380D01*
X254158261Y-126610619D01*
X253539214Y-127515380D02*
X253634452Y-127467761D01*
X253682071Y-127372523D01*
X253682071Y-126515380D01*
X253158261Y-127420142D02*
X253110642Y-127467761D01*
X253158261Y-127515380D01*
X253205880Y-127467761D01*
X253158261Y-127420142D01*
X253158261Y-127515380D01*
X252253500Y-127467761D02*
X252348738Y-127515380D01*
X252539214Y-127515380D01*
X252634452Y-127467761D01*
X252682071Y-127420142D01*
X252729690Y-127324904D01*
X252729690Y-127039190D01*
X252682071Y-126943952D01*
X252634452Y-126896333D01*
X252539214Y-126848714D01*
X252348738Y-126848714D01*
X252253500Y-126896333D01*
X251682071Y-127515380D02*
X251777309Y-127467761D01*
X251824928Y-127420142D01*
X251872547Y-127324904D01*
X251872547Y-127039190D01*
X251824928Y-126943952D01*
X251777309Y-126896333D01*
X251682071Y-126848714D01*
X251539214Y-126848714D01*
X251443976Y-126896333D01*
X251396357Y-126943952D01*
X251348738Y-127039190D01*
X251348738Y-127324904D01*
X251396357Y-127420142D01*
X251443976Y-127467761D01*
X251539214Y-127515380D01*
X251682071Y-127515380D01*
X250920166Y-127515380D02*
X250920166Y-126848714D01*
X250920166Y-126943952D02*
X250872547Y-126896333D01*
X250777309Y-126848714D01*
X250634452Y-126848714D01*
X250539214Y-126896333D01*
X250491595Y-126991571D01*
X250491595Y-127515380D01*
X250491595Y-126991571D02*
X250443976Y-126896333D01*
X250348738Y-126848714D01*
X250205880Y-126848714D01*
X250110642Y-126896333D01*
X250063023Y-126991571D01*
X250063023Y-127515380D01*
M02*
